<svg version="1.0" xmlns="http://www.w3.org/2000/svg"
  viewBox="0 0 860.486112 1200.554984"
 preserveAspectRatio="xMidYMid meet">
<metadata>
For more coloring pages, please visit ColoringAll.com
</metadata>
<g transform="translate(-1.500000,1200.811276) scale(0.100000,-0.100000)"
fill="#000000" stroke="none">
<path d="M3290 12000 c-104 -14 -215 -51 -345 -115 -149 -73 -269 -164 -355
-266 -102 -123 -241 -408 -276 -565 -21 -99 -30 -422 -14 -521 16 -103 61
-227 121 -340 32 -59 49 -104 49 -127 0 -58 -6 -65 -48 -55 -52 12 -170 11
-217 -2 -22 -6 -55 -22 -74 -36 -40 -31 -74 -102 -65 -137 3 -14 35 -58 70
-99 35 -42 64 -78 64 -82 0 -3 -18 -30 -40 -59 -49 -65 -84 -158 -76 -200 4
-17 18 -48 32 -69 l26 -39 -70 -71 c-86 -90 -134 -163 -162 -247 -20 -59 -22
-76 -15 -180 11 -157 11 -230 1 -332 l-8 -87 -124 -65 c-214 -113 -380 -226
-555 -376 -153 -132 -652 -605 -816 -773 -198 -205 -279 -305 -335 -415 l-43
-85 0 -161 0 -162 39 -79 c54 -109 160 -214 336 -332 191 -128 200 -138 321
-366 85 -162 109 -187 179 -187 59 0 168 22 247 50 31 11 72 20 89 20 19 0 88
-28 173 -70 l142 -70 -8 -73 c-4 -39 -8 -115 -7 -167 1 -107 13 -145 65 -205
l33 -38 95 7 c53 4 107 9 121 13 23 5 22 2 -15 -36 -52 -55 -177 -140 -340
-231 -277 -156 -395 -241 -531 -381 -246 -255 -445 -644 -507 -994 -10 -55 7
-64 52 -27 84 68 136 86 251 89 117 4 217 -13 233 -39 8 -12 3 -46 -21 -130
-17 -62 -45 -195 -61 -295 -29 -178 -51 -253 -122 -431 -26 -65 -31 -87 -22
-100 6 -9 18 -16 26 -14 9 1 96 44 194 94 l178 92 146 143 146 143 34 -60 c19
-34 68 -120 110 -193 l76 -131 -56 -34 c-74 -45 -134 -97 -345 -300 -167 -160
-183 -173 -235 -187 -243 -65 -509 -172 -630 -254 -128 -88 -261 -233 -261
-285 0 -29 34 -82 62 -97 40 -22 243 -28 557 -18 166 6 305 8 308 5 10 -10
-38 -75 -89 -121 -28 -25 -99 -73 -158 -106 -157 -87 -181 -115 -166 -194 12
-61 132 -140 263 -172 53 -12 117 -16 288 -15 231 0 371 9 646 43 l166 20 164
-55 c257 -86 445 -116 738 -116 l143 0 62 -49 c82 -65 215 -151 301 -194 314
-156 757 -227 1235 -198 296 18 465 53 727 147 249 90 417 184 583 325 135
115 156 120 535 144 299 18 380 28 493 61 262 76 405 229 534 573 64 171 78
243 87 466 10 227 3 327 -34 465 -71 263 -271 620 -497 886 -256 303 -535 497
-1408 974 -488 267 -730 431 -973 659 -139 129 -144 138 -197 351 -28 111 -70
202 -107 228 -32 23 -99 41 -150 42 -18 0 -33 3 -33 6 0 4 25 46 56 95 61 95
84 151 76 181 -5 22 -58 68 -78 68 -20 0 -18 13 14 67 70 119 366 553 377 553
2 0 50 -62 106 -137 56 -76 134 -181 173 -233 92 -122 245 -282 320 -332 85
-58 154 -81 267 -86 86 -4 104 -1 181 25 47 16 118 51 158 78 96 64 251 220
350 353 78 105 83 110 177 162 213 116 305 195 342 296 31 83 27 150 -19 311
-52 183 -56 213 -36 311 18 87 149 484 216 653 52 130 135 291 166 320 51 48
164 38 644 -56 179 -35 348 -67 375 -70 124 -15 382 37 442 90 l28 24 -28 28
-27 28 -199 5 c-110 3 -202 8 -206 11 -10 11 371 352 482 432 75 53 56 74 -89
98 -72 12 -74 11 -182 -25 -60 -20 -112 -33 -116 -29 -4 4 -12 33 -19 63 -6
30 -25 81 -42 113 l-30 58 31 94 c35 110 39 195 15 340 -8 50 -15 95 -15 101
0 6 18 10 41 10 l40 -1 21 58 c11 32 18 64 15 71 -9 23 -45 25 -82 5 -35 -19
-35 -19 -35 2 0 29 39 96 67 114 13 9 23 20 23 25 0 20 -23 9 -61 -28 -27 -28
-40 -51 -45 -80 -7 -46 -10 -48 -38 -27 -25 19 -60 19 -76 0 -9 -11 -8 -25 5
-64 19 -57 35 -74 73 -75 25 -1 28 -5 38 -66 15 -84 17 -264 3 -315 -19 -72
-41 -125 -53 -125 -17 0 -186 159 -186 175 0 8 -22 33 -50 56 -27 23 -52 50
-55 61 -4 10 -27 40 -53 67 -103 107 -116 127 -169 256 -29 72 -46 121 -38
111 8 -11 31 -62 51 -113 35 -91 62 -135 44 -73 -18 64 -73 200 -84 209 -17
15 -66 24 -66 13 0 -5 43 -98 97 -208 131 -268 134 -308 29 -358 -59 -28 -105
-32 -155 -15 l-31 11 25 19 c23 19 26 19 50 3 37 -24 55 -5 55 60 0 62 -17 97
-90 190 -49 62 -62 72 -148 112 -52 24 -96 44 -98 44 -2 0 -4 -7 -4 -15 0 -11
-12 -15 -44 -15 -25 0 -48 -4 -51 -10 -3 -5 1 -10 10 -10 11 0 15 -5 12 -14
-4 -10 -1 -13 9 -9 19 7 18 0 -6 -47 -11 -22 -20 -48 -20 -60 0 -11 -2 -20 -5
-20 -12 0 -72 34 -116 66 -54 39 -64 41 -79 15 -11 -22 -4 -51 18 -67 13 -9
11 -13 -9 -27 l-23 -17 24 0 c19 0 30 -10 45 -42 24 -51 98 -134 136 -153 15
-8 38 -15 51 -15 57 -1 54 -16 -15 -89 -37 -39 -67 -75 -67 -80 0 -5 17 -27
38 -50 29 -33 46 -44 79 -48 l41 -5 -3 -42 c-1 -22 -11 -58 -20 -78 -17 -34
-22 -37 -74 -43 -153 -18 -246 -52 -314 -115 -47 -43 -76 -85 -198 -290 -121
-204 -381 -567 -572 -800 -134 -161 -436 -489 -468 -505 -42 -22 -60 -9 -107
82 -54 106 -114 258 -236 604 -173 491 -222 599 -322 708 -91 98 -206 154
-458 222 -83 23 -155 45 -160 49 -5 5 -1 37 9 74 24 87 16 175 -24 285 -17 47
-31 90 -31 96 0 6 24 22 52 36 110 50 145 104 297 452 110 252 131 317 138
427 6 106 -9 184 -71 349 -49 129 -54 154 -41 185 7 16 5 18 -8 13 -12 -5 -18
2 -23 27 -7 41 16 88 80 166 72 86 106 178 106 285 0 39 6 51 53 105 129 151
156 209 165 353 13 218 -60 357 -211 402 -71 21 -212 19 -413 -7 l-172 -21
-58 48 c-75 61 -214 127 -335 159 -148 40 -366 55 -509 36z m377 -60 c160 -14
351 -80 433 -149 21 -17 23 -22 10 -31 -8 -5 -34 -10 -57 -10 -24 0 -43 -4
-43 -9 0 -21 107 -23 339 -6 366 27 450 13 517 -87 50 -74 68 -219 43 -353
-15 -81 -39 -128 -110 -215 -104 -129 -112 -140 -105 -147 3 -3 15 2 26 12 28
25 32 17 20 -45 -19 -102 -110 -263 -124 -219 -2 8 -7 70 -9 139 -3 69 -11
147 -17 172 -12 46 -11 49 17 85 44 56 66 93 57 93 -5 0 -45 -27 -89 -60 -82
-61 -215 -138 -215 -123 0 4 25 40 56 78 86 107 144 186 144 198 0 5 -44 -32
-97 -84 -137 -132 -199 -182 -292 -238 -89 -54 -235 -111 -282 -111 l-30 0 49
73 c95 140 127 233 40 115 -102 -140 -245 -252 -389 -308 -64 -24 -93 -30
-159 -30 -118 0 -378 38 -419 62 -18 10 -35 17 -38 15 -2 -2 15 -26 37 -53 88
-106 136 -255 127 -399 -5 -88 -13 -109 -128 -359 -73 -156 -106 -261 -89
-281 6 -7 39 -27 74 -45 63 -32 66 -32 128 -21 74 13 87 4 89 -63 6 -179 -44
-291 -175 -393 -48 -37 -48 -38 -23 -41 18 -2 27 -9 27 -20 -1 -31 -68 -182
-115 -257 -93 -149 -216 -220 -519 -297 -88 -22 -215 -60 -282 -83 l-122 -44
-6 29 c-3 16 -1 64 4 108 24 209 70 310 203 445 48 49 85 92 83 95 -3 2 -27
-8 -53 -23 -65 -38 -174 -152 -223 -233 l-40 -67 0 45 c0 109 55 247 132 335
54 62 113 102 268 186 74 39 170 94 212 121 l77 49 81 -25 c80 -26 170 -34
170 -17 0 10 -34 21 -65 21 -73 1 -212 112 -261 207 -29 58 -29 59 -29 238 0
99 4 253 9 343 6 110 5 162 -2 162 -5 0 -13 -24 -17 -52 -19 -157 -28 -209
-37 -206 -16 6 -68 135 -96 238 -24 88 -26 111 -26 305 0 241 14 333 70 480
118 305 299 512 566 646 219 110 377 135 675 109z m900 -1057 l6 -95 -31 16
c-35 18 -79 21 -116 6 -52 -19 -156 -141 -156 -182 0 -37 42 -16 126 62 91 84
117 95 148 61 24 -26 30 -82 18 -169 -10 -69 -41 -141 -49 -115 -5 14 -103
-59 -203 -150 l-65 -59 -5 63 -5 64 -13 -40 c-15 -49 -16 -137 -1 -187 12 -46
34 -52 24 -7 -9 41 4 49 81 49 69 0 136 20 177 53 23 18 29 32 34 80 3 31 9
57 13 57 10 0 44 -81 85 -204 34 -100 35 -108 35 -258 l0 -154 -84 -194 c-93
-219 -177 -389 -212 -436 -42 -54 -112 -85 -212 -91 -170 -11 -354 34 -530
128 -52 28 -97 48 -100 44 -13 -13 86 -92 165 -132 43 -22 108 -50 146 -63
l67 -22 0 -96 c0 -171 35 -411 61 -428 11 -7 11 30 -1 81 -5 22 -7 41 -5 44 6
6 185 -103 214 -130 13 -12 39 -54 57 -93 83 -175 118 -444 75 -584 -38 -127
-130 -221 -276 -281 -97 -41 -211 -55 -380 -48 -142 6 -194 19 -342 87 -193
89 -299 189 -531 500 -106 142 -214 277 -308 388 -20 23 -35 44 -33 46 2 2 65
22 139 45 74 24 157 55 183 69 113 61 218 222 260 401 21 88 25 97 85 165 88
99 115 158 120 262 6 108 -4 168 -32 201 l-23 26 -60 -16 c-91 -26 -119 -23
-159 17 -19 19 -34 42 -34 53 1 31 45 127 113 245 36 62 81 145 99 183 31 67
33 76 33 185 0 124 -12 172 -67 284 -16 32 -27 60 -25 62 2 2 62 -12 132 -31
153 -42 230 -45 331 -14 83 26 129 48 212 105 53 36 72 43 130 49 117 11 198
33 291 79 49 25 125 55 168 66 43 12 107 34 143 50 79 35 80 35 87 -97z m-135
-123 c-28 -21 -62 -55 -77 -74 -25 -33 -64 -60 -49 -33 37 61 130 147 161 147
8 0 -8 -18 -35 -40z m76 -389 c3 -10 0 -12 -12 -8 -23 9 -46 -2 -46 -23 0 -10
-7 -23 -15 -30 -8 -7 -15 -27 -15 -46 0 -36 -17 -55 -26 -30 -12 32 7 89 42
124 34 34 63 39 72 13z m-137 -99 c-15 -53 -32 -66 -78 -57 l-37 7 58 56 c33
31 61 52 63 45 2 -6 -1 -29 -6 -51z m-1933 -302 c12 -7 -4 -10 -58 -10 -100
-1 -145 -17 -145 -50 0 -33 48 -56 146 -73 l73 -12 12 -55 c7 -30 24 -86 39
-123 14 -38 23 -73 20 -78 -4 -5 -31 -9 -61 -9 -60 0 -72 -15 -21 -25 48 -11
52 -16 26 -36 -36 -28 -4 -23 57 8 59 30 75 26 50 -12 -27 -41 -302 -165 -368
-165 -12 0 -35 12 -50 27 -40 38 -38 88 7 181 39 82 56 95 85 61 l20 -24 -10
28 c-17 49 -42 90 -96 162 -30 40 -54 82 -54 94 0 35 79 112 126 122 47 10
179 3 202 -11z m4 -58 c32 -32 -59 -52 -143 -32 l-53 13 25 19 c19 17 35 19
91 16 37 -2 73 -9 80 -16z m5616 -458 c18 -12 22 -24 20 -52 -6 -66 -39 -48
-53 31 -8 41 -1 45 33 21z m162 -6 c0 -7 -5 -30 -11 -51 -8 -31 -14 -38 -32
-35 -47 7 -24 98 25 98 10 0 18 -6 18 -12z m-941 -85 c24 -47 21 -201 -7 -328
-9 -44 -12 -45 -84 -15 -26 11 -56 20 -67 20 -32 0 -35 19 -4 26 15 4 42 16
58 26 17 10 41 18 53 18 15 0 22 5 19 13 -7 20 -56 10 -93 -18 -28 -21 -41
-25 -67 -20 -42 9 -64 30 -93 87 -26 51 -31 98 -11 98 6 0 36 -12 66 -25 30
-14 60 -24 66 -21 7 2 15 23 18 47 9 71 45 103 119 108 10 0 21 -7 27 -16z
m61 -93 c56 -191 60 -210 42 -210 -9 0 -27 -3 -39 -6 -23 -6 -23 -6 -23 122 0
95 -4 137 -15 158 -19 36 -19 47 1 21 8 -11 23 -49 34 -85z m61 24 c17 -29 36
-52 42 -51 29 5 84 -151 59 -167 -12 -7 -86 20 -94 36 -4 7 -21 66 -37 130
-32 131 -23 147 30 52z m-453 7 c3 -16 -1 -22 -10 -19 -7 3 -15 15 -16 27 -3
16 1 22 10 19 7 -3 15 -15 16 -27z m771 -157 c33 21 -14 -89 -49 -114 -42 -30
-46 -24 -11 15 24 28 31 45 31 78 0 28 3 37 9 28 5 -7 14 -10 20 -7z m25 -110
c3 -9 6 -30 6 -47 0 -18 4 -38 9 -46 15 -23 23 5 16 57 -6 45 -5 46 10 27 9
-11 43 -74 75 -140 65 -132 110 -272 110 -343 0 -45 -3 -49 -87 -134 -48 -49
-82 -88 -76 -88 6 0 48 34 92 76 l80 75 7 -28 c12 -56 14 -46 9 48 -9 160 -60
326 -147 474 -53 91 -55 97 -21 57 15 -18 84 -93 153 -166 119 -126 197 -231
153 -208 -10 6 -34 26 -52 46 -54 56 -56 42 -5 -21 26 -31 54 -73 62 -93 19
-43 18 -142 0 -194 l-14 -38 -13 43 c-18 60 -55 130 -80 153 -28 25 -27 9 4
-65 16 -38 28 -88 32 -137 l5 -77 -66 -32 c-36 -18 -66 -29 -66 -23 0 5 9 32
20 60 24 61 14 65 -22 7 -15 -23 -41 -58 -57 -77 -28 -32 -30 -33 -31 -13 l0
22 -47 -25 c-47 -25 -51 -26 -183 -20 -74 4 -151 10 -170 15 l-35 8 45 12
c112 30 203 65 260 100 83 50 170 138 203 205 31 63 35 91 8 59 -18 -22 -18
-22 -25 45 -4 37 -13 95 -21 130 -18 78 -73 212 -87 212 -6 0 -7 -7 -3 -17 4
-10 21 -60 36 -112 42 -136 38 -158 -17 -100 -16 16 -59 51 -97 77 -48 33 -66
50 -61 61 3 9 12 44 19 79 19 89 53 137 69 96z m-312 -50 c15 -8 28 -19 28
-25 0 -6 5 -7 10 -4 6 3 10 1 10 -6 0 -8 5 -7 18 3 16 14 75 38 93 38 5 0 9
-31 9 -70 l0 -70 -37 -1 c-63 -2 -76 1 -131 34 -64 38 -87 63 -96 101 -7 28
-7 28 31 21 20 -4 50 -13 65 -21z m-3211 -66 c19 -59 24 -94 24 -183 0 -183
-30 -208 -167 -139 -39 20 -85 46 -101 58 l-29 21 6 145 c6 117 10 147 23 158
11 8 53 12 119 12 l101 0 24 -72z m3420 -21 c-8 -8 -11 1 -11 29 0 53 14 67
18 19 2 -21 -1 -42 -7 -48z m-288 10 c50 -31 58 -51 30 -73 -28 -21 -55 -17
-105 15 l-46 29 -41 -30 c-47 -34 -51 -41 -16 -32 14 3 32 3 41 0 15 -6 15 -8
-1 -26 -29 -32 -70 -26 -100 15 l-27 34 37 45 c20 25 41 46 46 48 5 2 37 3 72
3 50 0 71 -5 110 -28z m87 -72 c0 -2 -10 -10 -22 -16 -21 -11 -22 -11 -9 4 13
16 31 23 31 12z m-159 -31 c21 -24 22 -26 3 -16 -25 13 -50 42 -37 42 5 0 20
-12 34 -26z m375 0 c44 -21 180 -147 199 -185 9 -16 15 -56 15 -96 l0 -68 -78
-64 c-105 -87 -162 -112 -271 -118 -86 -5 -161 8 -318 53 -47 14 -53 18 -53
43 0 60 90 280 146 355 43 58 133 93 242 95 59 1 94 -4 118 -15z m666 -280
c-68 -36 -126 -63 -129 -61 -11 12 20 47 59 65 77 37 143 61 168 61 16 1 -18
-22 -98 -65z m263 31 c0 -5 -29 -13 -65 -16 -81 -8 -118 -24 -242 -101 -55
-33 -101 -58 -104 -55 -17 17 187 144 280 173 46 15 131 14 131 -1z m-1447
-56 c2 -14 -5 -47 -15 -74 -17 -46 -21 -50 -66 -61 -67 -17 -69 -24 -8 -24 28
0 62 -6 74 -14 18 -12 105 -37 302 -85 26 -6 18 -9 -48 -19 -43 -7 -94 -19
-115 -28 l-37 -17 170 -23 c190 -26 326 -31 368 -15 35 14 50 14 42 1 -10 -17
13 -12 119 26 127 46 124 44 197 109 102 91 349 251 349 226 0 -12 -123 -129
-278 -266 -140 -122 -185 -155 -214 -155 -10 0 -18 -4 -18 -9 0 -18 39 -23
245 -32 249 -11 298 -16 292 -32 -5 -15 -101 -41 -229 -63 -121 -20 -195 -13
-463 47 -297 67 -380 80 -555 86 -178 6 -237 -2 -232 -31 2 -10 -22 -61 -52
-114 -112 -198 -186 -382 -416 -1040 l-113 -323 -29 28 c-42 40 -147 206 -179
283 -40 94 -76 241 -90 363 -14 130 -25 107 197 434 88 131 202 306 253 388
145 233 180 286 235 343 62 66 66 68 179 98 112 29 131 28 135 -7z m-4749 -34
c45 -23 123 -115 261 -309 340 -476 452 -587 699 -691 125 -53 216 -69 376
-68 88 0 170 7 220 17 109 23 232 84 298 149 111 109 142 202 134 402 -6 152
-27 241 -93 394 -24 57 -42 107 -39 110 7 7 136 -26 148 -38 5 -5 26 -82 47
-172 50 -212 105 -371 236 -676 151 -353 154 -364 154 -520 0 -142 -11 -226
-41 -317 -31 -94 -118 -266 -222 -436 -51 -85 -138 -227 -191 -315 -54 -88
-130 -226 -169 -307 l-72 -147 -92 -31 c-131 -42 -217 -54 -359 -47 -227 12
-434 69 -812 223 l-190 78 -12 105 c-29 262 -59 379 -161 623 -38 92 -69 171
-69 176 0 5 20 15 44 21 77 19 132 109 156 253 15 95 12 356 -6 477 -43 296
-177 680 -308 884 -35 55 -76 131 -76 141 0 11 56 35 83 36 15 0 41 -7 56 -15z
m-199 -45 c32 -17 107 -131 159 -241 80 -168 149 -385 207 -644 21 -95 27
-156 31 -295 6 -206 -6 -317 -44 -402 -31 -69 -63 -98 -109 -98 -26 0 -39 8
-68 43 -41 50 -106 156 -106 173 0 6 43 24 96 39 52 16 97 32 100 37 7 12 0
11 -153 -18 -199 -37 -343 -61 -343 -58 0 1 62 35 138 75 169 89 221 121 205
126 -20 7 -209 -80 -743 -342 -272 -133 -524 -254 -560 -268 -96 -36 -158 -47
-282 -47 -107 0 -114 1 -205 41 -53 22 -98 38 -101 35 -10 -11 77 -84 130
-109 128 -61 258 -56 506 17 l83 24 87 -83 c102 -97 328 -342 384 -416 21 -28
38 -61 38 -73 0 -60 -204 -282 -327 -354 -123 -74 -319 -142 -404 -142 -42 0
-51 4 -82 39 -31 34 -177 269 -177 284 0 3 16 -1 35 -9 73 -30 74 -11 3 43
-29 22 -134 100 -233 173 -213 159 -291 235 -337 327 -33 67 -33 69 -33 213 0
142 1 146 32 212 57 121 113 191 322 398 369 367 967 874 1244 1055 81 52 461
254 480 255 5 0 17 -5 27 -10z m2390 -40 c130 -47 192 -82 256 -145 91 -91
149 -211 319 -665 104 -279 185 -479 249 -617 31 -66 56 -122 56 -125 0 -6
-225 -140 -300 -179 -25 -12 -81 -33 -125 -45 l-80 -23 62 0 c78 -1 160 28
345 120 76 38 140 69 143 69 4 0 -6 -19 -20 -42 -77 -125 -175 -372 -175 -444
0 -50 11 -37 50 61 39 99 106 218 176 312 105 141 539 653 553 653 4 0 11 -41
14 -91 14 -193 70 -391 149 -523 52 -88 182 -225 243 -255 26 -13 65 -25 88
-28 70 -8 73 -10 46 -39 -30 -32 -157 -118 -309 -209 -263 -157 -349 -229
-196 -165 39 17 72 28 74 25 8 -8 -85 -110 -170 -187 -218 -196 -305 -238
-492 -238 -77 0 -90 3 -163 39 -96 49 -170 115 -327 292 -114 128 -324 379
-340 407 -4 7 18 66 53 141 33 71 79 182 103 247 l42 119 1 180 0 180 -36 90
c-20 50 -80 184 -133 299 -54 115 -114 252 -135 305 -73 184 -167 494 -155
513 7 10 38 3 134 -32z m3507 18 c-3 -8 -6 -5 -6 6 -1 11 2 17 5 13 3 -3 4
-12 1 -19z m-5866 -1511 c70 -93 269 -489 269 -535 0 -8 -10 -47 -21 -86 -12
-39 -27 -105 -33 -146 l-12 -74 -46 79 c-99 172 -186 262 -276 285 -65 16
-116 -3 -183 -70 -82 -82 -128 -192 -146 -353 l-8 -68 -106 123 c-59 68 -188
207 -288 310 l-181 186 36 21 c125 74 523 276 576 292 66 20 275 74 318 82 49
9 65 2 101 -46z m4443 -97 c8 -36 20 -96 26 -135 21 -150 10 -185 -58 -185
-48 1 -122 34 -122 55 0 17 73 234 105 314 21 50 25 45 49 -49z m-4496 -463
c46 -30 115 -119 203 -263 35 -58 88 -141 117 -186 28 -45 50 -84 46 -87 -19
-20 -260 110 -344 187 -69 62 -105 118 -115 179 -10 62 2 102 31 109 37 10 30
34 -10 34 -25 0 -39 -7 -50 -22 -21 -30 -21 -121 1 -184 33 -98 186 -216 380
-295 54 -22 104 -47 111 -56 24 -33 14 -69 -43 -142 -59 -74 -68 -79 -200
-110 -36 -8 -31 -9 42 -10 45 -1 84 -5 88 -10 9 -15 -38 -131 -79 -195 l-38
-59 -23 24 c-13 13 -125 158 -249 323 l-226 298 0 63 c0 145 53 277 151 378
l58 60 55 -5 c37 -3 68 -13 94 -31z m406 -207 c50 -187 70 -340 44 -340 -21 0
-102 94 -130 150 -16 31 -28 71 -28 91 0 38 36 192 52 223 10 19 11 18 23 -5
7 -13 24 -67 39 -119z m-646 -517 c126 -159 261 -331 301 -383 l72 -95 -5
-110 c-8 -171 -48 -314 -146 -521 -71 -151 -140 -259 -177 -277 -21 -10 -71
-13 -190 -13 -148 1 -164 3 -190 22 -24 18 -28 29 -31 75 -4 73 5 115 30 139
23 22 170 100 187 100 44 0 -42 -124 -109 -157 -45 -22 -45 -27 -2 -23 27 2
29 -16 2 -25 -23 -7 -17 -25 7 -25 9 0 24 -7 34 -15 15 -15 17 -14 23 11 4 15
24 68 46 118 21 50 50 134 65 186 14 52 35 129 46 170 21 79 79 180 104 180
33 0 21 24 -47 96 -117 123 -281 244 -508 373 l-121 69 68 55 c90 72 181 168
228 242 46 71 65 95 76 95 4 0 111 -129 237 -287z m877 71 c552 -227 615 -247
822 -264 216 -17 301 -14 385 16 132 48 143 56 184 139 35 72 38 75 58 62 38
-25 32 -72 -22 -182 -45 -93 -92 -212 -92 -235 0 -23 21 -8 34 25 23 54 80 59
154 13 48 -29 91 -130 166 -388 69 -239 132 -410 193 -517 36 -65 134 -195
167 -222 34 -28 24 -3 -30 75 -31 43 -73 113 -94 154 -42 83 -124 304 -135
364 -7 35 -6 37 11 28 11 -6 66 -54 124 -107 236 -217 442 -363 835 -590 593
-344 933 -554 1085 -668 111 -83 312 -281 425 -417 152 -183 257 -367 295
-515 36 -143 34 -322 -5 -441 -65 -193 -236 -429 -427 -590 -135 -113 -338
-239 -346 -214 -2 5 10 68 27 138 58 243 51 269 -17 70 -50 -145 -108 -257
-166 -324 -153 -175 -627 -381 -921 -400 -123 -9 -122 -10 -180 191 -83 288
-205 582 -276 668 -17 21 -33 36 -36 34 -2 -3 7 -49 21 -103 61 -244 70 -309
70 -509 1 -305 -12 -348 -117 -380 -91 -28 -406 -40 -686 -27 -321 15 -476 42
-660 115 l-56 22 -26 90 c-45 154 -58 182 -324 685 -154 291 -428 848 -494
1004 -148 351 -220 632 -310 1226 -62 405 -66 454 -66 885 0 374 1 408 23 528
44 240 98 437 122 437 12 0 54 -82 126 -248 74 -169 193 -397 262 -502 99
-149 254 -290 402 -365 67 -34 59 -24 -72 90 -150 130 -287 288 -369 426 -49
83 -279 534 -279 548 0 19 22 3 180 -124 298 -240 421 -301 652 -325 137 -14
422 -10 438 6 8 8 -40 13 -187 17 -117 3 -228 12 -273 21 -106 22 -343 141
-501 253 -69 48 -169 117 -223 152 -94 62 -98 66 -92 95 3 17 9 57 12 89 6 49
10 57 28 57 11 0 93 -30 181 -66z m-1030 -519 c94 -68 152 -116 171 -143 12
-18 10 -25 -21 -64 -44 -59 -110 -88 -198 -88 -120 0 -154 58 -144 249 9 158
8 156 65 127 26 -13 83 -50 127 -81z m590 8 c-9 -49 -29 -31 -21 20 4 22 10
45 14 51 10 16 15 -30 7 -71z m-549 -478 c-3 -8 -59 -57 -124 -109 -161 -127
-176 -148 -180 -245 -4 -105 14 -140 83 -159 28 -8 52 -16 54 -18 2 -2 -24
-52 -57 -111 -74 -134 -127 -266 -163 -405 -23 -91 -34 -117 -74 -170 -50 -66
-77 -117 -115 -210 -12 -32 -26 -58 -31 -58 -5 0 -53 17 -106 39 -238 94 -386
101 -536 25 -38 -19 -70 -34 -72 -34 -7 0 61 190 109 302 93 224 273 496 431
653 115 116 206 183 460 338 77 47 181 115 230 151 79 57 90 62 93 45 2 -11 1
-27 -2 -34z m488 -331 c16 -679 168 -1469 373 -1944 103 -238 306 -619 577
-1083 86 -148 175 -304 196 -348 50 -99 100 -223 100 -249 0 -30 -65 -42 -199
-38 -105 3 -122 6 -176 33 -136 68 -258 222 -485 615 -135 233 -202 338 -280
439 -71 93 -193 221 -210 221 -15 0 -13 -4 99 -145 46 -58 82 -108 79 -110 -7
-7 -167 133 -306 269 -379 370 -556 682 -592 1044 -25 245 18 620 92 812 31
79 125 267 139 275 6 4 67 12 135 17 69 5 135 13 148 18 45 17 197 263 263
424 l28 69 6 -34 c4 -19 9 -147 13 -285z m-498 241 c-11 -8 -25 -15 -30 -15
-6 0 -2 7 8 15 11 8 25 15 30 15 6 0 2 -7 -8 -15z m-392 -1727 c21 -96 28 -84
-150 -258 -112 -109 -142 -132 -224 -174 -52 -27 -121 -64 -153 -83 -32 -20
-60 -33 -63 -30 -3 3 4 23 15 46 45 87 61 147 101 363 48 262 86 429 104 454
13 17 17 16 87 -9 116 -42 124 -40 154 53 23 69 61 158 83 190 16 24 17 14 23
-225 4 -185 10 -270 23 -327z m6117 -689 c20 -90 23 -133 23 -324 0 -216 -1
-222 -32 -337 -56 -208 -149 -430 -226 -537 -41 -58 -144 -142 -225 -185 -131
-68 -249 -92 -626 -126 -126 -11 -239 -24 -250 -27 -18 -5 -18 -4 -6 11 18 21
260 182 409 271 108 65 135 85 112 85 -34 0 -370 -188 -468 -262 -30 -22 -55
-38 -58 -36 -7 8 168 198 292 318 101 97 128 119 181 138 257 96 610 422 733
677 52 107 78 205 92 348 7 64 15 111 19 104 5 -7 18 -60 30 -118z m-5812 97
c16 -19 6 -36 -54 -107 -71 -83 -154 -209 -253 -384 -150 -265 -136 -253 -420
-371 -97 -41 -231 -102 -297 -136 l-120 -61 -148 7 c-193 9 -218 19 -203 81
18 69 234 233 428 324 137 64 337 143 351 138 34 -11 -353 -266 -600 -397 -75
-39 -100 -60 -73 -60 13 0 226 106 365 183 177 97 306 191 456 331 77 72 199
187 272 255 145 136 240 211 267 211 10 0 23 -6 29 -14z m130 -149 c124 -118
222 -203 423 -365 97 -78 189 -157 205 -177 15 -19 81 -133 146 -252 205 -376
263 -469 352 -558 92 -93 170 -139 275 -161 80 -16 135 -12 250 17 l75 20 105
-39 c226 -85 396 -117 703 -133 305 -15 540 0 654 43 56 20 108 71 120 116 10
34 10 483 1 572 l-7 65 25 -70 c14 -38 54 -171 90 -295 36 -124 67 -233 70
-242 9 -30 69 -41 189 -34 219 12 367 49 570 140 66 29 122 52 124 50 15 -14
-324 -326 -435 -400 -225 -150 -580 -272 -934 -320 -175 -24 -587 -24 -760 -1
-167 24 -331 60 -470 107 -189 62 -521 232 -489 250 8 5 185 16 394 25 208 9
381 18 383 20 11 10 -135 16 -683 25 -642 12 -721 17 -866 54 -314 82 -522
207 -671 404 -64 84 -75 62 -20 -41 31 -58 164 -202 233 -253 28 -20 47 -40
42 -45 -32 -31 -844 -45 -992 -16 -124 24 -251 95 -251 140 0 26 54 71 132
112 248 129 277 167 586 771 93 182 186 357 207 390 47 74 117 163 129 164 5
0 48 -37 95 -83z m-599 -649 c0 -13 -93 -189 -122 -230 l-19 -28 -182 1 c-100
1 -193 4 -206 8 l-24 6 29 14 c16 8 106 48 199 91 94 42 202 93 240 113 78 40
85 42 85 25z M3850 10509 c-13 -6 -110 -35 -215 -66 -104 -30 -217 -68 -250
-83 -57 -26 -115 -74 -103 -85 3 -3 34 8 69 25 42 19 126 43 238 65 188 39
261 62 297 96 46 43 25 72 -36 48z m15 -35 c-26 -19 -157 -60 -220 -68 -34 -4
-10 6 78 33 70 21 130 41 134 44 3 4 11 7 17 7 6 0 2 -7 -9 -16z M4355 10490
c-11 -4 -31 -20 -44 -34 l-24 -26 64 26 c35 15 73 30 84 34 15 7 10 9 -20 9
-22 0 -49 -4 -60 -9z M3625 10281 c-49 -29 -128 -101 -109 -101 5 0 29 16 54
36 25 20 64 47 88 61 23 14 42 27 42 29 0 11 -30 1 -75 -25z M3800 10275 c-16
-17 -30 -23 -42 -19 -11 3 -25 0 -33 -6 -12 -10 -15 -10 -15 0 0 7 -18 -4 -41
-25 -50 -45 -169 -123 -227 -149 -23 -11 -41 -24 -39 -29 1 -5 23 -18 47 -28
75 -30 240 -22 346 17 l42 15 -6 65 -5 66 44 39 c27 23 38 38 29 39 -9 0 -22
-6 -29 -12 -10 -11 -11 -9 -5 6 6 17 4 18 -20 12 -24 -6 -27 -4 -21 14 8 26 3
25 -25 -5z m-2 -97 c19 -19 14 -30 -7 -18 -11 5 -24 10 -29 10 -12 0 -62 -97
-62 -122 0 -13 -6 -18 -17 -16 -14 3 -18 13 -17 41 1 41 21 69 69 98 35 22 47
23 63 7z m-138 -37 c0 -4 -4 -21 -9 -37 -5 -16 -12 -42 -16 -58 l-6 -28 -74 4
c-102 5 -112 18 -38 56 32 16 74 39 93 51 38 23 50 26 50 12z M4370 9916 c0
-22 -12 -52 -35 -86 -20 -29 -34 -55 -31 -57 2 -2 20 10 40 27 38 34 57 81 49
124 -8 37 -23 32 -23 -8z M4151 9791 c-25 -16 7 -22 41 -7 l33 14 -30 1 c-16
0 -36 -3 -44 -8z M4397 9681 c-37 -21 -73 -43 -79 -49 -7 -7 -39 -12 -72 -12
-34 -1 -81 -5 -106 -10 -25 -6 -91 -14 -148 -19 -57 -5 -106 -11 -109 -14 -17
-18 139 -159 231 -208 49 -27 69 -31 131 -32 57 0 80 4 108 22 56 34 68 63 77
173 4 55 14 108 22 121 21 32 28 56 20 61 -4 3 -38 -12 -75 -33z m23 -30 c0
-4 -26 -26 -57 -47 -58 -38 -59 -38 -183 -44 -69 -4 -126 -5 -128 -4 -9 5 105
27 178 33 71 7 93 13 134 39 55 35 56 36 56 23z m-50 -95 c0 -25 -41 -65 -78
-76 -52 -14 -100 -13 -190 6 -123 25 -116 31 51 44 69 5 141 16 159 24 43 19
58 19 58 2z m12 -115 c-30 -41 -91 -71 -143 -71 -50 0 -176 56 -234 105 l-30
26 60 -28 c53 -24 73 -27 167 -27 l107 -1 35 34 c20 19 39 44 43 55 6 16 9 10
11 -23 2 -32 -2 -52 -16 -70z M7235 9330 c3 -5 8 -10 11 -10 2 0 4 5 4 10 0 6
-5 10 -11 10 -5 0 -7 -4 -4 -10z M7179 9265 c-28 -64 -23 -79 29 -83 l42 -3
-1 38 c-3 99 -37 123 -70 48z m30 -61 c-6 -7 -15 -11 -21 -8 -5 3 -4 12 3 20
6 7 15 11 21 8 5 -3 4 -12 -3 -20z M7016 9232 c-2 -4 4 -26 15 -47 l19 -40 -3
37 -3 38 23 -22 c22 -21 31 -16 15 9 -10 15 -60 34 -66 25z M7138 9053 c7 -3
16 -2 19 1 4 3 -2 6 -13 5 -11 0 -14 -3 -6 -6z M7046 194 c-10 -47 -15 -88
-12 -91 5 -6 9 7 30 110 7 37 10 67 6 67 -4 0 -15 -39 -24 -86z M7360 270 c0
-5 5 -10 10 -10 6 0 10 5 10 10 0 6 -4 10 -10 10 -5 0 -10 -4 -10 -10z M7906
194 c-10 -47 -15 -88 -12 -91 5 -6 9 7 30 110 7 37 10 67 6 67 -4 0 -15 -39
-24 -86z M7986 269 c-3 -8 -10 -41 -16 -74 -6 -33 -14 -68 -16 -77 -3 -10 -1
-18 3 -18 10 0 46 171 38 178 -2 3 -7 -1 -9 -9z M6749 241 c-38 -38 -41 -101
-7 -125 29 -20 79 -20 104 0 18 14 18 15 1 10 -53 -17 -69 -17 -92 -2 -69 45
21 166 94 126 12 -6 21 -7 21 -1 0 12 -25 21 -62 21 -19 0 -39 -10 -59 -29z
M7750 189 c-28 -45 -49 -83 -47 -85 2 -3 12 7 21 21 14 21 24 25 66 25 43 0
50 -3 50 -19 0 -11 5 -23 10 -26 6 -3 10 -3 10 1 0 20 -44 164 -51 164 -4 0
-30 -37 -59 -81z m75 4 l7 -33 -42 0 c-42 0 -42 0 -28 23 8 12 21 32 29 44 15
25 22 18 34 -34z M6900 210 c-22 -22 -27 -79 -8 -98 19 -19 66 -14 88 8 22 22
27 79 8 98 -19 19 -66 14 -88 -8z m71 0 c25 -14 25 -54 -1 -80 -23 -23 -33
-24 -61 -10 -25 14 -25 54 1 80 23 23 33 24 61 10z M7110 210 c-22 -22 -27
-79 -8 -98 19 -19 66 -14 88 8 22 22 27 79 8 98 -19 19 -66 14 -88 -8z m71 0
c25 -14 25 -54 -1 -80 -23 -23 -33 -24 -61 -10 -25 14 -25 54 1 80 23 23 33
24 61 10z M7256 204 c-3 -16 -8 -47 -11 -69 -8 -51 10 -26 19 27 5 27 15 42
34 53 18 10 22 14 10 15 -9 0 -20 -5 -24 -11 -5 -8 -9 -8 -14 1 -5 8 -10 3
-14 -16z M7357 223 c-2 -4 -7 -26 -11 -48 -4 -22 -9 -48 -12 -57 -3 -10 -1
-18 4 -18 4 0 14 28 20 62 11 58 10 81 -1 61z M7415 220 c-1 -3 -5 -23 -9 -45
-4 -22 -9 -48 -12 -57 -3 -10 -1 -18 4 -18 5 0 13 20 17 45 7 53 44 87 74 68
17 -11 19 -28 8 -80 -4 -18 -3 -33 2 -33 16 0 24 99 11 115 -12 14 -87 18 -95
5z M7580 210 c-22 -22 -27 -79 -8 -98 7 -7 24 -12 38 -12 14 0 31 5 38 12 9 9
12 8 12 -5 0 -9 -12 -24 -26 -34 -21 -13 -32 -15 -55 -6 -16 6 -29 8 -29 3 0
-24 81 -27 102 -2 18 19 50 162 37 162 -5 0 -9 -5 -9 -10 0 -7 -6 -7 -19 0
-30 16 -59 12 -81 -10z m71 0 c29 -16 25 -65 -6 -86 -56 -37 -103 28 -55 76
23 23 33 24 61 10z M8081 211 c-23 -23 -28 -80 -9 -99 19 -19 88 -13 88 9 0 5
-11 4 -24 -2 -54 -25 -89 38 -46 81 23 23 33 24 62 9 16 -9 19 -8 16 3 -8 22
-64 22 -87 -1z M8210 210 c-22 -22 -27 -79 -8 -98 19 -19 66 -14 88 8 22 22
27 79 8 98 -19 19 -66 14 -88 -8z m71 0 c25 -14 25 -54 -1 -80 -23 -23 -33
-24 -61 -10 -25 14 -25 54 1 80 23 23 33 24 61 10z M8356 201 c-3 -14 -8 -44
-11 -66 -8 -51 10 -26 19 27 8 41 35 63 66 53 22 -7 24 -21 11 -77 -5 -22 -5
-38 0 -38 5 0 9 6 9 13 0 68 51 125 85 97 15 -13 15 -35 -1 -92 -3 -10 -1 -18
4 -18 6 0 13 23 17 50 9 63 -5 84 -49 76 -17 -4 -35 -6 -41 -6 -101 8 -104 7
-109 -19z M8000 110 c0 -5 5 -10 10 -10 6 0 10 5 10 10 0 6 -4 10 -10 10 -5 0
-10 -4 -10 -10z"/>
</g>
</svg>
